<?xml version="1.0" encoding="UTF-8" standalone="no"?> <svg id="Layer_1" data-name="Layer 1" xmlns="http://www.w3.org/2000/svg" viewBox="0 0 128 128"><defs><style>.cls-1{fill:#fff;}.cls-2{fill:#fff;}</style></defs><title>a</title><path class="cls-1" d="M77.33557,57.80946h6.20372v9.0364a2.32712,2.32712,0,1,0,4.65424,0V40.249a2.32712,2.32712,0,1,0-4.65424,0V53.15548H77.33557a1.17518,1.17518,0,0,1-1.32947-1.32934V40.249a2.327,2.327,0,1,0-4.654,0V51.82614A5.79386,5.79386,0,0,0,77.33557,57.80946Z"/><path class="cls-1" d="M50.197,69.173H66.24741a2.32706,2.32706,0,1,0,0-4.65411H55.81452l9.8944-9.89427A9.78437,9.78437,0,0,0,51.87174,40.78748l-1.65439,1.65439A2.32677,2.32677,0,1,0,53.508,45.73236L55.16235,44.078A5.13083,5.13083,0,1,1,62.41844,51.334L48.55161,65.20049A2.327,2.327,0,0,0,50.197,69.173Z"/><path class="cls-1" d="M125.91942,38.10044a2.32423,2.32423,0,0,0-1.93279-1.03187H107.02148a2.327,2.327,0,0,0,0,4.654h13.4928L110.20641,66.814a2.32647,2.32647,0,1,0,4.30393,1.76807l11.62845-28.3027A2.32526,2.32526,0,0,0,125.91942,38.10044Z"/><path class="cls-1" d="M92.90912,74.33291a2.30394,2.30394,0,0,0,.39195.03287,2.32734,2.32734,0,0,0,2.29174-1.937l6.29033-36.98131a2.32693,2.32693,0,0,0-4.58812-.77951L91.00469,71.64923A2.32682,2.32682,0,0,0,92.90912,74.33291Z"/><path class="cls-2" d="M107.79416,97.05442,83.24272,81.28959a4.37077,4.37077,0,0,0-6.218,1.06087c-1.78328,2.63394-5.64087,8.1079-6.34447,9.10561-1.276.53192-11.33175,3.92062-28.1238-12.87131-.15106-.15106-.28523-.29708-.42133-.44118l-.3632-.38679-.3721-.34838c-.144-.13623-.29012-.27041-.44105-.42133C24.15586,60.18421,27.55745,50.12534,28.0864,48.86225c.99578-.70166,6.47271-4.56028,9.10652-6.34344a4.36863,4.36863,0,0,0,1.08755-6.17962l-15.79137-24.59a3.783,3.783,0,0,0-.38383-.447,3.93044,3.93044,0,0,0-5.4612-.10852C13.09645,14.5025,5.37534,22.16033,4.14782,24.72222A26.24245,26.24245,0,0,0,3.04545,44.19744,110.97486,110.97486,0,0,0,29.842,87.69915c.19243.19243.38692.37107.58025.54867.31977.29206.608.58025.87347.87334.17851.19436.35624.38782.54867.58025a110.96991,110.96991,0,0,0,43.50171,26.79652,26.24248,26.24248,0,0,0,19.47522-1.10224c2.56176-1.22765,10.21958-8.94863,13.5285-12.49625a3.93218,3.93218,0,0,0-.55563-5.845Z"/></svg>